<svg width="500" height="500" viewBox="0 0 500 500" fill="none" xmlns="http://www.w3.org/2000/svg">
<path d="M418.49 123.27C404.22 100.05 380.43 84.0004 353.41 80.4004C342.895 78.9611 332.211 79.3297 321.82 81.4904C290.87 88.0404 263.93 111.15 252.82 140.75C246.26 158.16 244.42 178.2 231.96 192.02C215.75 210.02 188.22 210.57 164.01 209.83C139.8 209.09 112.26 209.72 96.13 227.77C86 239.08 82.76 255.16 83.57 270.3C85.73 310.4 114 346.25 150 364.06C186 381.87 228.35 383.48 267.72 375.64C322.89 364.64 375.35 334.5 406.88 287.93C436.88 243.55 445.59 183.85 424.52 134.84C422.792 130.843 420.777 126.976 418.49 123.27Z" fill="#557DAC" fill-opacity="0.35"/>
<path d="M307.73 291.09C309.87 274.98 298.54 261.68 284.38 253.69C270.22 245.7 253.79 243 238.15 238.58C223.4 234.39 208.73 228.27 197.81 217.51C186.89 206.75 180.33 190.58 184.25 175.76C185.25 172.04 187 168.3 190.2 166.15C193.4 164 198.27 164.06 200.66 167.08C205.74 173.52 195.84 185.08 202.04 190.42C203.46 191.66 205.42 192.11 206.89 193.28C210.8 196.41 209.54 202.48 210.09 207.46C211.18 217.31 220.42 224.15 229.49 228.14C241.64 233.48 254.8 235.99 267.68 239.14C280.56 242.29 293.57 246.3 304.3 254.14C315.03 261.98 324.36 274.14 324.3 287.43C324.3 291.14 323.81 295.7 321.48 298.58C319.15 301.46 316.19 302.07 312.83 300.49C309.47 298.91 307.13 296.49 307.75 291.11" fill="#E36396"/>
<g opacity="0.8">
<path opacity="0.8" d="M307.73 291.09C309.87 274.98 298.54 261.68 284.38 253.69C270.22 245.7 253.79 243 238.15 238.58C223.4 234.39 208.73 228.27 197.81 217.51C186.89 206.75 180.33 190.58 184.25 175.76C185.25 172.04 187 168.3 190.2 166.15C193.4 164 198.27 164.06 200.66 167.08C205.74 173.52 195.84 185.08 202.04 190.42C203.46 191.66 205.42 192.11 206.89 193.28C210.8 196.41 209.54 202.48 210.09 207.46C211.18 217.31 220.42 224.15 229.49 228.14C241.64 233.48 254.8 235.99 267.68 239.14C280.56 242.29 293.57 246.3 304.3 254.14C315.03 261.98 324.36 274.14 324.3 287.43C324.3 291.14 323.81 295.7 321.48 298.58C319.15 301.46 316.19 302.07 312.83 300.49C309.47 298.91 307.13 296.49 307.75 291.11" fill="white"/>
</g>
<path d="M239.23 162.999C238.72 156.999 243.17 151.829 248.23 149.049C253.29 146.269 259.09 145.129 264.3 142.659C277.25 136.519 285.48 122.069 286.09 107.259C286.7 92.4495 280.27 77.6295 270.23 66.7495C266.14 62.3295 261.12 57.6895 261.06 51.6595C261 45.3595 267.06 40.3995 273.2 40.4795C279.34 40.5595 284.92 44.6495 288.57 49.7795C292.22 54.9095 294.23 60.9995 296.2 66.9995C294.8 64.4795 297.67 61.3695 300.45 61.6395C303.23 61.9095 305.45 64.2195 307.12 66.5195C314.519 76.5642 318.067 88.9302 317.12 101.369C316.118 113.577 310.59 124.969 301.62 133.309C291.75 142.309 278.7 146.519 266.04 150.519L239.63 158.849" fill="#E36396"/>
<g opacity="0.8">
<path opacity="0.8" d="M239.23 162.999C238.72 156.999 243.17 151.829 248.23 149.049C253.29 146.269 259.09 145.129 264.3 142.659C277.25 136.519 285.48 122.069 286.09 107.259C286.7 92.4495 280.27 77.6295 270.23 66.7495C266.14 62.3295 261.12 57.6895 261.06 51.6595C261 45.3595 267.06 40.3995 273.2 40.4795C279.34 40.5595 284.92 44.6495 288.57 49.7795C292.22 54.9095 294.23 60.9995 296.2 66.9995C294.8 64.4795 297.67 61.3695 300.45 61.6395C303.23 61.9095 305.45 64.2195 307.12 66.5195C314.519 76.5642 318.067 88.9302 317.12 101.369C316.118 113.577 310.59 124.969 301.62 133.309C291.75 142.309 278.7 146.519 266.04 150.519L239.63 158.849" fill="white"/>
</g>
<path d="M231.88 37.5195C230.541 38.072 229.467 39.1204 228.882 40.4458C228.297 41.7712 228.246 43.2712 228.741 44.633C229.235 45.9947 230.237 47.1129 231.536 47.7542C232.835 48.3954 234.331 48.5103 235.713 48.0748C237.095 47.6392 238.255 46.6869 238.951 45.4166C239.648 44.1463 239.827 42.6561 239.451 41.2569C239.075 39.8578 238.174 38.6578 236.934 37.9074C235.695 37.157 234.214 36.9142 232.8 37.2295" fill="#E36396"/>
<g opacity="0.8">
<path opacity="0.8" d="M231.88 37.5195C230.541 38.072 229.467 39.1204 228.882 40.4458C228.297 41.7712 228.246 43.2712 228.741 44.633C229.235 45.9947 230.237 47.1129 231.536 47.7542C232.835 48.3954 234.331 48.5103 235.713 48.0748C237.095 47.6392 238.255 46.6869 238.951 45.4166C239.648 44.1463 239.827 42.6561 239.451 41.2569C239.075 39.8578 238.174 38.6578 236.934 37.9074C235.695 37.157 234.214 36.9142 232.8 37.2295" fill="white"/>
</g>
<path d="M264.45 422.839C261.21 416.129 264.04 407.759 269.2 402.379C274.36 396.999 281.4 393.929 288.2 390.929C303.26 384.289 319.2 376.389 326.85 361.829C329.43 356.919 330.9 351.519 332.35 346.159C335.16 335.799 337.8 324.029 332.15 314.899C330.52 312.269 328.08 309.899 325.04 309.399C321.57 308.779 318.04 310.689 315.88 313.479C313.877 316.395 312.674 319.784 312.39 323.309C311.55 329.939 312.25 336.689 311.55 343.309C310.85 349.929 308.44 356.999 303 360.779C296.33 365.429 286.82 364.389 280.35 369.299C275.12 373.299 273.13 380.139 269.05 385.299C265.61 389.609 260.8 392.549 256.4 395.869C252 399.189 247.74 403.229 246.24 408.539C245.453 411.315 245.483 414.259 246.327 417.018C247.17 419.777 248.792 422.234 250.997 424.094C253.201 425.955 255.896 427.141 258.757 427.509C261.619 427.877 264.526 427.412 267.13 426.169" fill="#E36396"/>
<g opacity="0.8">
<path opacity="0.8" d="M264.45 422.839C261.21 416.129 264.04 407.759 269.2 402.379C274.36 396.999 281.4 393.929 288.2 390.929C303.26 384.289 319.2 376.389 326.85 361.829C329.43 356.919 330.9 351.519 332.35 346.159C335.16 335.799 337.8 324.029 332.15 314.899C330.52 312.269 328.08 309.899 325.04 309.399C321.57 308.779 318.04 310.689 315.88 313.479C313.877 316.395 312.674 319.784 312.39 323.309C311.55 329.939 312.25 336.689 311.55 343.309C310.85 349.929 308.44 356.999 303 360.779C296.33 365.429 286.82 364.389 280.35 369.299C275.12 373.299 273.13 380.139 269.05 385.299C265.61 389.609 260.8 392.549 256.4 395.869C252 399.189 247.74 403.229 246.24 408.539C245.453 411.315 245.483 414.259 246.327 417.018C247.17 419.777 248.792 422.234 250.997 424.094C253.201 425.955 255.896 427.141 258.757 427.509C261.619 427.877 264.526 427.412 267.13 426.169" fill="white"/>
</g>
<path d="M164.33 83.8596C161.667 81.8827 159.515 79.2992 158.051 76.3236C156.587 73.348 155.854 70.066 155.912 66.7503C155.971 63.4346 156.82 60.1807 158.388 57.2587C159.957 54.3367 162.199 51.831 164.93 49.9496C168.01 47.8396 171.65 46.5396 174.39 43.9496C176.82 41.6896 178.39 38.5596 181.12 36.6596C182.824 35.4514 184.869 34.8191 186.957 34.855C189.046 34.8908 191.068 35.593 192.729 36.859C194.39 38.125 195.604 39.8887 196.192 41.8927C196.781 43.8968 196.713 46.0364 196 47.9996C194.75 51.5096 191.6 54.0796 190.28 57.5596C188.86 61.3196 189.78 65.5596 189.28 69.4996C188.953 71.9526 188.078 74.3005 186.719 76.3692C185.361 78.4379 183.555 80.1744 181.434 81.4499C179.313 82.7254 176.933 83.5072 174.469 83.7374C172.005 83.9676 169.52 83.6402 167.2 82.7796" fill="#E36396"/>
<g opacity="0.8">
<path opacity="0.8" d="M164.33 83.8596C161.667 81.8827 159.515 79.2992 158.051 76.3236C156.587 73.348 155.854 70.066 155.912 66.7503C155.971 63.4346 156.82 60.1807 158.388 57.2587C159.957 54.3367 162.199 51.831 164.93 49.9496C168.01 47.8396 171.65 46.5396 174.39 43.9496C176.82 41.6896 178.39 38.5596 181.12 36.6596C182.824 35.4514 184.869 34.8191 186.957 34.855C189.046 34.8908 191.068 35.593 192.729 36.859C194.39 38.125 195.604 39.8887 196.192 41.8927C196.781 43.8968 196.713 46.0364 196 47.9996C194.75 51.5096 191.6 54.0796 190.28 57.5596C188.86 61.3196 189.78 65.5596 189.28 69.4996C188.953 71.9526 188.078 74.3005 186.719 76.3692C185.361 78.4379 183.555 80.1744 181.434 81.4499C179.313 82.7254 176.933 83.5072 174.469 83.7374C172.005 83.9676 169.52 83.6402 167.2 82.7796" fill="white"/>
</g>
<path d="M164.71 62.4199H177V87.7499C177 88.4604 176.86 89.1639 176.588 89.8202C176.316 90.4766 175.918 91.073 175.415 91.5754C174.913 92.0777 174.317 92.4762 173.66 92.7481C173.004 93.02 172.3 93.1599 171.59 93.1599H170.13C168.695 93.1599 167.319 92.5899 166.305 91.5754C165.29 90.5608 164.72 89.1847 164.72 87.7499V62.4199H164.71Z" fill="#E36396"/>
<path d="M164.71 62.4194L170.85 51.1494L177 62.4194H164.71Z" fill="#FFBE9D"/>
<path d="M168.42 55.6094C168.42 55.6094 170.29 58.4194 173.29 55.6094L170.86 51.1494L168.42 55.6094Z" fill="#E36396"/>
<path d="M177.17 86.52C175.096 86.7705 173.006 86.8541 170.92 86.77C168.836 86.8543 166.75 86.7707 164.68 86.52C166.75 86.2694 168.836 86.1858 170.92 86.27C173.006 86.1859 175.096 86.2695 177.17 86.52Z" fill="#263238"/>
<path d="M177 84.6293C174.97 84.8797 172.923 84.9634 170.88 84.8793C168.836 84.9634 166.79 84.8797 164.76 84.6293C166.791 84.3914 168.837 84.3111 170.88 84.3893C172.923 84.3111 174.969 84.3914 177 84.6293Z" fill="#263238"/>
<path d="M168.32 62.5996C168.45 62.5996 168.57 67.4996 168.57 73.5496C168.57 79.5996 168.45 84.5496 168.32 84.5496C168.19 84.5496 168.07 79.6396 168.07 73.5496C168.07 67.4596 168.18 62.5996 168.32 62.5996Z" fill="#FAFAFA"/>
<path d="M173.29 62.5996C173.43 62.5996 173.54 67.4996 173.54 73.5496C173.54 79.5996 173.43 84.5496 173.29 84.5496C173.15 84.5496 173.04 79.6396 173.04 73.5496C173.04 67.4596 173.15 62.5996 173.29 62.5996Z" fill="#FAFAFA"/>
<path d="M271.49 408.72L327.32 411.11L328.67 414.36L292.07 473.76L226.01 471.83L271.49 408.72Z" fill="#263238"/>
<path d="M223.51 466.04L289.96 469.84L324.68 415.97L300.3 417.95L238.61 439.67L223.51 466.04Z" fill="#E0E0E0"/>
<path d="M214.169 462.05L275.169 463.05C272.639 455.24 278.609 444.25 286.819 440.55C292.259 438.1 302.489 434.92 307.769 432.21C317.769 427.06 326.869 417.32 326.079 408.95L300.999 408.12L268.999 406.88C266.319 414.82 260.599 420.01 251.899 423.14C244.119 425.94 235.259 425.93 227.659 429.14C215.439 434.26 209.569 450.85 214.119 462.08" fill="#EBEBEB"/>
<path d="M214.17 462.05C214.17 462.05 214.11 461.92 214.02 461.65L213.6 460.48C213.378 459.826 213.204 459.158 213.08 458.48C212.876 457.564 212.735 456.635 212.66 455.7C212.465 453.103 212.627 450.492 213.14 447.94C213.85 444.502 215.178 441.222 217.06 438.26C217.59 437.403 218.175 436.581 218.81 435.8C219.14 435.41 219.46 434.98 219.81 434.6L220.94 433.45C221.318 433.055 221.726 432.691 222.16 432.36C222.59 432.01 223.01 431.64 223.47 431.31C224.422 430.639 225.425 430.044 226.47 429.53C230.7 427.4 235.75 426.53 241.01 425.53C243.65 425.05 246.37 424.53 249.09 423.8C251.889 423.032 254.59 421.945 257.14 420.56C258.457 419.847 259.711 419.024 260.89 418.1C262.104 417.166 263.22 416.11 264.22 414.95C266.291 412.556 267.868 409.776 268.86 406.77L268.92 406.6H269.09L295.74 407.6C304.99 407.96 314.56 408.21 324.36 408.54L326.14 408.6H326.36V408.82C326.494 410.735 326.221 412.657 325.56 414.46C325.244 415.35 324.87 416.219 324.44 417.06C323.998 417.886 323.511 418.687 322.98 419.46C320.871 422.487 318.323 425.183 315.42 427.46C312.613 429.695 309.547 431.585 306.29 433.09C303.07 434.54 299.81 435.72 296.62 436.9C293.43 438.08 290.27 439.2 287.28 440.5C285.808 441.152 284.426 441.992 283.17 443C282.52 443.46 281.98 444.05 281.39 444.56C280.8 445.07 280.29 445.69 279.82 446.32C277.872 448.671 276.42 451.392 275.55 454.32C274.668 457.091 274.615 460.059 275.4 462.86L275.49 463.13H275.21L230.82 462.35L218.51 462.1L215.29 462.01H214.18C214.18 462.01 214.56 462.01 215.29 462.01H218.52L230.83 462.15L275.21 462.77L275.02 463.03C274.198 460.154 274.244 457.1 275.15 454.25C276.02 451.256 277.494 448.472 279.48 446.07C279.95 445.43 280.54 444.88 281.07 444.28C281.6 443.68 282.23 443.15 282.89 442.67C284.17 441.636 285.583 440.779 287.09 440.12C290.09 438.8 293.27 437.67 296.46 436.49C299.65 435.31 302.9 434.12 306.09 432.68C309.304 431.19 312.326 429.316 315.09 427.1C317.955 424.859 320.469 422.203 322.55 419.22C323.072 418.471 323.556 417.697 324 416.9C324.418 416.081 324.782 415.236 325.09 414.37C325.727 412.634 325.993 410.784 325.87 408.94L326.11 409.16L324.32 409.11C314.52 408.78 304.95 408.52 295.71 408.11L269.05 407.11L269.28 406.95C268.259 410.009 266.649 412.839 264.54 415.28C263.519 416.46 262.38 417.532 261.14 418.48C259.942 419.42 258.664 420.253 257.32 420.97C254.743 422.371 252.011 423.465 249.18 424.23C246.43 424.98 243.7 425.48 241.06 425.95C235.8 426.89 230.77 427.77 226.6 429.85C225.579 430.352 224.6 430.934 223.67 431.59C223.21 431.91 222.8 432.28 222.37 432.59C221.939 432.917 221.534 433.279 221.16 433.67L220 434.82C219.64 435.2 219.33 435.62 219 436.01C218.363 436.776 217.778 437.584 217.25 438.43C215.368 441.357 214.036 444.604 213.32 448.01C212.783 450.539 212.598 453.13 212.77 455.71C212.829 456.641 212.956 457.567 213.15 458.48C213.261 459.157 213.422 459.825 213.63 460.48C213.8 461 213.92 461.39 214.01 461.67C214.1 461.95 214.17 462.05 214.17 462.05Z" fill="#263238"/>
<path d="M286.19 407.87C286.19 407.87 286.27 407.48 286.33 406.78C286.404 405.795 286.239 404.807 285.85 403.9C285.306 402.547 284.28 401.442 282.97 400.8C282.167 400.426 281.298 400.218 280.413 400.187C279.528 400.156 278.646 400.304 277.819 400.621C276.992 400.938 276.238 401.419 275.601 402.033C274.964 402.648 274.457 403.385 274.11 404.2C273.497 405.527 273.292 407.006 273.52 408.45C273.665 409.421 274.005 410.353 274.52 411.19C274.9 411.79 275.18 412.07 275.15 412.1C274.84 411.887 274.575 411.615 274.37 411.3C273.751 410.477 273.33 409.522 273.14 408.51C272.843 406.993 273.021 405.422 273.65 404.01C274.016 403.134 274.555 402.341 275.237 401.68C275.918 401.02 276.727 400.504 277.613 400.166C278.5 399.827 279.446 399.672 280.395 399.711C281.343 399.749 282.274 399.98 283.13 400.39C284.522 401.096 285.594 402.304 286.13 403.77C286.504 404.723 286.621 405.757 286.47 406.77C286.43 407.046 286.363 407.317 286.27 407.58C286.25 407.79 286.21 407.87 286.19 407.87Z" fill="#263238"/>
<path d="M295.76 407.87C295.71 407.87 295.84 407.48 295.9 406.78C295.968 405.795 295.804 404.809 295.42 403.9C294.87 402.546 293.841 401.443 292.53 400.8C291.727 400.427 290.857 400.22 289.973 400.19C289.088 400.16 288.207 400.308 287.38 400.625C286.554 400.942 285.8 401.422 285.162 402.036C284.525 402.65 284.017 403.386 283.67 404.2C283.06 405.528 282.858 407.007 283.09 408.45C283.23 409.422 283.571 410.355 284.09 411.19C284.47 411.79 284.75 412.07 284.72 412.1C284.403 411.892 284.133 411.62 283.93 411.3C283.314 410.475 282.894 409.521 282.7 408.51C282.412 406.992 282.593 405.422 283.22 404.01C283.585 403.135 284.125 402.344 284.805 401.684C285.486 401.024 286.293 400.509 287.179 400.17C288.064 399.832 289.01 399.677 289.957 399.715C290.904 399.752 291.834 399.982 292.69 400.39C294.082 401.096 295.154 402.304 295.69 403.77C296.06 404.724 296.181 405.756 296.04 406.77C296.002 407.047 295.931 407.319 295.83 407.58C295.827 407.68 295.803 407.779 295.76 407.87Z" fill="#263238"/>
<path d="M303 408.37C303 408.37 303.06 407.97 303.08 407.27C303.095 406.283 302.876 405.306 302.44 404.42C301.814 403.103 300.725 402.063 299.38 401.5C298.559 401.175 297.682 401.017 296.8 401.034C295.917 401.051 295.047 401.244 294.24 401.6C292.615 402.345 291.352 403.704 290.73 405.38C290.195 406.741 290.073 408.23 290.38 409.66C290.591 410.627 290.999 411.539 291.58 412.34C291.99 412.91 292.29 413.18 292.26 413.21C291.934 413.021 291.651 412.766 291.43 412.46C290.765 411.671 290.29 410.741 290.04 409.74C289.665 408.242 289.755 406.665 290.3 405.22C290.615 404.325 291.109 403.503 291.752 402.805C292.395 402.106 293.173 401.546 294.039 401.158C294.906 400.77 295.842 400.562 296.791 400.547C297.74 400.532 298.682 400.71 299.56 401.07C300.99 401.694 302.13 402.838 302.75 404.27C303.185 405.207 303.364 406.242 303.27 407.27C303.249 407.549 303.195 407.824 303.11 408.09C303.08 408.28 303 408.37 303 408.37Z" fill="#263238"/>
<path d="M310.81 408.81C310.81 408.81 310.81 408.41 310.81 407.71C310.777 406.723 310.506 405.759 310.02 404.9C309.328 403.614 308.185 402.631 306.81 402.14C305.972 401.857 305.086 401.745 304.204 401.811C303.322 401.877 302.462 402.119 301.676 402.524C300.889 402.929 300.192 403.488 299.626 404.167C299.06 404.847 298.636 405.633 298.38 406.48C297.915 407.866 297.873 409.36 298.26 410.77C298.523 411.725 298.979 412.617 299.6 413.39C300.04 413.93 300.35 414.18 300.32 414.22C299.985 414.044 299.689 413.803 299.45 413.51C298.747 412.757 298.224 411.854 297.92 410.87C297.459 409.395 297.459 407.814 297.92 406.34C298.19 405.431 298.64 404.585 299.243 403.854C299.846 403.122 300.59 402.519 301.43 402.08C302.277 401.646 303.203 401.39 304.152 401.326C305.101 401.263 306.053 401.393 306.95 401.71C308.407 402.253 309.606 403.324 310.31 404.71C310.795 405.633 311.026 406.668 310.98 407.71C310.971 407.986 310.934 408.261 310.87 408.53C310.86 408.72 310.83 408.81 310.81 408.81Z" fill="#263238"/>
<path d="M318.61 408.63C318.61 408.63 318.61 408.23 318.61 407.53C318.549 406.544 318.251 405.587 317.74 404.74C317.012 403.477 315.844 402.527 314.46 402.07C313.614 401.809 312.724 401.72 311.843 401.81C310.962 401.9 310.108 402.167 309.332 402.595C308.556 403.022 307.875 403.602 307.328 404.298C306.781 404.995 306.381 405.795 306.15 406.65C305.79 407.822 305.731 409.065 305.977 410.265C306.224 411.466 306.768 412.585 307.56 413.52C308.02 414.05 308.34 414.29 308.31 414.32C307.968 414.165 307.664 413.937 307.42 413.65C306.7 412.914 306.153 412.025 305.82 411.05C305.322 409.587 305.283 408.006 305.71 406.52C305.956 405.604 306.382 404.747 306.965 403.998C307.547 403.249 308.273 402.624 309.1 402.16C309.934 401.705 310.851 401.424 311.797 401.335C312.742 401.245 313.696 401.349 314.6 401.64C316.076 402.147 317.307 403.189 318.05 404.56C318.561 405.476 318.82 406.512 318.8 407.56C318.8 407.839 318.77 408.118 318.71 408.39C318.66 408.53 318.63 408.63 318.61 408.63Z" fill="#263238"/>
<path d="M325.19 409.5C325.19 409.5 325.19 409.1 325.19 408.4C325.168 407.412 324.907 406.445 324.43 405.58C323.751 404.292 322.623 403.299 321.26 402.79C320.425 402.496 319.54 402.372 318.657 402.427C317.774 402.482 316.911 402.714 316.12 403.11C315.329 403.506 314.625 404.057 314.051 404.73C313.477 405.404 313.045 406.186 312.78 407.03C312.377 408.186 312.269 409.425 312.466 410.633C312.664 411.842 313.16 412.982 313.91 413.95C314.35 414.5 314.65 414.75 314.63 414.79C314.296 414.612 314.003 414.367 313.77 414.07C313.071 413.311 312.557 412.401 312.27 411.41C311.829 409.928 311.853 408.347 312.34 406.88C312.62 405.974 313.08 405.134 313.691 404.409C314.303 403.684 315.054 403.089 315.9 402.66C316.751 402.238 317.68 401.994 318.629 401.942C319.578 401.89 320.528 402.033 321.42 402.36C322.875 402.92 324.063 404.015 324.74 405.42C325.215 406.346 325.436 407.381 325.38 408.42C325.368 408.697 325.328 408.971 325.26 409.24C325.24 409.41 325.21 409.51 325.19 409.5Z" fill="#263238"/>
<path d="M354 204.65C351.238 204.567 348.473 204.694 345.73 205.03C337.407 206.101 329.763 210.178 324.237 216.494C318.712 222.81 315.686 230.928 315.73 239.32C315.701 244.841 316.417 250.34 317.86 255.67C322.67 272.73 324.15 287.76 323.6 295.09L339.7 303.74C339.7 303.74 347.15 293.03 354.35 288.41C361.55 283.79 385.51 271.41 395 258.76C401.11 250.58 402.29 233.76 387.71 219.1C378.743 210.138 366.674 204.965 354 204.65Z" fill="#557DAC"/>
<path d="M315.9 313.71L330.44 321.57L320.98 333.59L311.28 329.19L315.9 313.71Z" fill="#455A64"/>
<path d="M316.611 314.199C316.481 314.149 317.921 309.829 319.831 304.559C321.741 299.289 323.391 295.039 323.521 295.089C323.651 295.139 322.211 299.449 320.301 304.729C318.391 310.009 316.741 314.239 316.611 314.199Z" fill="#263238"/>
<path d="M329.53 321C329.41 320.93 331.69 316.85 334.61 311.89C337.53 306.93 340 303 340.13 303C340.26 303 337.97 307.15 335.04 312.11C332.11 317.07 329.64 321.05 329.53 321Z" fill="#263238"/>
<g opacity="0.4">
<path opacity="0.4" d="M358.801 205.109C358.151 205.109 350.151 214.509 346.611 220.849C334.701 242.179 334.161 262.929 330.861 287.129C330.391 290.589 328.671 298.039 328.701 297.869C330.461 299.249 336.381 301.999 336.381 301.999C336.381 301.999 341.971 295.259 344.191 291.869C353.071 278.299 362.721 267.709 370.331 253.379C377.941 239.049 385.261 226.379 378.221 211.719C378.221 211.719 366.001 204.699 358.801 205.109Z" fill="black"/>
</g>
<path d="M395.001 260.9C394.916 260.753 394.846 260.599 394.791 260.44C394.661 260.14 394.501 259.67 394.231 259.09C393.477 257.411 392.534 255.824 391.421 254.36C389.711 252.099 387.624 250.15 385.251 248.6C382.209 246.584 378.742 245.3 375.121 244.85H375.001L374.941 244.77C372.997 242.1 370.826 239.604 368.451 237.31C365.851 234.801 362.854 232.74 359.581 231.21C356.292 229.722 352.696 229.036 349.091 229.21C345.805 229.338 342.625 230.4 339.921 232.27L339.771 232.37L339.641 232.25C336.892 229.838 333.473 228.321 329.841 227.9C327.019 227.579 324.162 227.942 321.511 228.96C319.794 229.617 318.183 230.523 316.731 231.65C316.231 232.05 315.851 232.37 315.611 232.59C315.492 232.709 315.361 232.816 315.221 232.91C315.327 232.78 315.44 232.656 315.561 232.54C315.791 232.3 316.151 231.96 316.641 231.54C318.074 230.349 319.687 229.393 321.421 228.71C324.106 227.633 327.013 227.228 329.891 227.53C333.611 227.931 337.119 229.463 339.941 231.92H339.661C342.431 229.987 345.696 228.887 349.071 228.75C352.749 228.561 356.419 229.247 359.781 230.75C363.105 232.305 366.147 234.404 368.781 236.96C371.175 239.277 373.357 241.803 375.301 244.51L375.151 244.42C378.835 244.887 382.357 246.217 385.431 248.3C387.822 249.894 389.917 251.894 391.621 254.21C392.722 255.706 393.635 257.331 394.341 259.05C394.591 259.64 394.731 260.12 394.841 260.43C394.904 260.583 394.957 260.74 395.001 260.9Z" fill="#263238"/>
<path d="M365.06 282.15C364.813 280.912 364.342 279.729 363.67 278.66C362.883 277.436 361.826 276.41 360.58 275.66C358.987 274.674 357.116 274.231 355.25 274.4H355.05V274.2C354.66 271.806 353.664 269.552 352.157 267.651C350.65 265.75 348.682 264.266 346.44 263.34C344.453 262.563 342.318 262.238 340.19 262.39C338.235 262.532 336.331 263.08 334.6 264L334.45 264.08L334.33 263.95C332.833 262.381 330.875 261.33 328.74 260.95C327.083 260.628 325.374 260.683 323.74 261.11C322.291 261.514 320.933 262.193 319.74 263.11C319.74 263.11 319.8 263.02 319.95 262.89C320.1 262.76 320.32 262.55 320.63 262.32C321.543 261.674 322.557 261.184 323.63 260.87C325.304 260.387 327.066 260.298 328.78 260.61C331.014 260.978 333.067 262.063 334.63 263.7L334.36 263.65C336.138 262.705 338.093 262.14 340.1 261.99C342.301 261.835 344.509 262.177 346.56 262.99C349.028 263.987 351.166 265.657 352.73 267.81C354.137 269.701 355.058 271.909 355.41 274.24L355.18 274.06C357.132 273.907 359.081 274.395 360.73 275.45C361.999 276.237 363.067 277.309 363.85 278.58C364.351 279.393 364.71 280.286 364.91 281.22C364.961 281.464 364.997 281.711 365.02 281.96C365.039 282.022 365.052 282.085 365.06 282.15Z" fill="#263238"/>
<path d="M327.631 325.36C327.631 325.36 327.471 325.16 327.101 325C326.543 324.831 325.945 324.852 325.401 325.06C324.982 325.191 324.549 325.269 324.111 325.29C323.841 325.288 323.574 325.23 323.326 325.122C323.079 325.014 322.856 324.857 322.671 324.66C321.901 323.85 321.611 322.66 320.881 321.89C320.714 321.7 320.508 321.551 320.276 321.452C320.044 321.353 319.793 321.308 319.541 321.32C319.026 321.376 318.517 321.48 318.021 321.63C317.527 321.771 317.007 321.798 316.501 321.71C315.969 321.578 315.485 321.299 315.104 320.905C314.724 320.51 314.463 320.016 314.351 319.48C314.283 319.258 314.283 319.021 314.351 318.8C314.351 318.8 314.351 319.04 314.521 319.44C314.709 319.992 315.057 320.476 315.521 320.83C315.825 321.073 316.187 321.235 316.571 321.3C317.017 321.36 317.472 321.319 317.901 321.18C318.424 321.011 318.964 320.898 319.511 320.84C319.832 320.821 320.154 320.875 320.452 320.998C320.75 321.121 321.016 321.31 321.231 321.55C322.081 322.55 322.341 323.65 322.991 324.34C323.278 324.661 323.681 324.855 324.111 324.88C324.513 324.875 324.913 324.818 325.301 324.71C325.918 324.518 326.584 324.561 327.171 324.83C327.591 325.07 327.651 325.36 327.631 325.36Z" fill="#263238"/>
<path d="M329.3 323C326.864 321.986 324.496 320.817 322.21 319.5C319.842 318.327 317.548 317.012 315.34 315.56C317.776 316.579 320.148 317.748 322.44 319.06C324.804 320.233 327.095 321.549 329.3 323Z" fill="#263238"/>
<path d="M326.411 326.69C326.411 326.69 326.211 326.79 325.861 326.95C325.681 327.03 325.481 327.15 325.201 327.27C324.88 327.382 324.539 327.426 324.201 327.4C323.322 327.351 322.482 327.026 321.801 326.47C321.402 326.131 321.09 325.703 320.891 325.22C320.727 324.747 320.488 324.304 320.181 323.91C319.82 323.606 319.399 323.382 318.946 323.251C318.493 323.12 318.018 323.085 317.551 323.15C316.7 323.249 315.837 323.168 315.021 322.91C314.461 322.696 314.003 322.278 313.741 321.74C313.581 321.35 313.641 321.1 313.661 321.11C313.681 321.12 313.721 321.33 313.921 321.65C314.21 322.093 314.645 322.422 315.151 322.58C315.929 322.775 316.738 322.812 317.531 322.69C318.064 322.611 318.609 322.649 319.127 322.801C319.645 322.953 320.124 323.215 320.531 323.57C320.869 324.007 321.132 324.497 321.311 325.02C321.479 325.443 321.743 325.823 322.081 326.13C322.686 326.637 323.426 326.957 324.211 327.05C324.746 327.098 325.285 327.001 325.771 326.77C326.181 326.66 326.411 326.66 326.411 326.69Z" fill="#263238"/>
<path d="M216.621 233.299L241.771 229.569L229.771 212.569L223.331 212.949C221.202 213.072 219.15 213.784 217.404 215.006C215.657 216.228 214.285 217.912 213.441 219.869C212.527 221.992 212.273 224.34 212.711 226.609L216.621 233.299Z" fill="#E36396"/>
<path opacity="0.4" d="M216.621 233.299L241.771 229.569L229.771 212.569L223.331 212.949C221.202 213.072 219.15 213.784 217.404 215.006C215.657 216.228 214.285 217.912 213.441 219.869C212.527 221.992 212.273 224.34 212.711 226.609L216.621 233.299Z" fill="black"/>
<path d="M324.64 261.159C324.9 261.879 325.18 262.729 325.47 263.749C325.709 264.628 325.801 265.541 325.74 266.449C325.7 267.577 325.509 268.693 325.17 269.769C324.76 270.769 325.72 271.689 326.53 271.209C327.34 270.729 328.53 268.129 328.53 264.789C328.53 261.449 331.87 265.449 333.14 266.889C334.41 268.329 338.55 272.599 339.3 272.559C340.4 272.499 340.54 271.309 339.24 269.899C337.94 268.489 334.33 263.999 335.12 263.359C335.91 262.719 342.27 270.149 342.27 270.149C342.27 270.149 343.37 271.959 344.27 271.259C345.97 269.989 338.62 262.599 337.9 261.919C337.41 261.439 338.24 260.719 338.75 261.259C339.26 261.799 344.93 268.809 346.67 267.529C348 266.529 340.67 261.399 340.31 259.299C339.95 257.199 345.47 263.769 346.7 262.789C347.17 262.419 347.46 262.079 343.7 258.789C341.9 257.169 335.04 252.369 335.04 252.369L314.4 193.279L298.46 202.409L324.64 261.159Z" fill="#FFBE9D"/>
<path d="M201.77 149.399L178.71 121.879C178.419 120.93 178.041 120.009 177.58 119.129C177.045 118.031 176.284 117.059 175.346 116.277C174.409 115.494 173.316 114.919 172.14 114.589C170.68 114.269 169 114.429 167.85 113.469C167.34 113.039 167 112.469 166.46 112.029C165.92 111.589 165.03 111.549 164.68 112.119C164.59 112.342 164.553 112.582 164.57 112.821C164.587 113.06 164.659 113.292 164.78 113.499C165.646 115.535 167.024 117.313 168.78 118.659C166.62 119.319 163.53 120.319 163.53 120.319C163.53 120.319 158.66 115.029 156.16 115.039C153.66 115.049 158.16 119.769 158.16 119.769C158.16 119.769 154.16 116.069 152.92 117.109C151.68 118.149 154.86 120.899 154.86 120.899C153.905 120.25 152.764 119.93 151.61 119.989C150.48 120.179 149.51 121.509 150.12 122.479C150.38 122.829 150.724 123.107 151.12 123.289L157.26 126.709C158.243 127.364 159.367 127.776 160.54 127.909C163.66 128.009 166.03 126.079 169.14 126.159C169.14 126.159 186.53 162.769 188.29 164.659C190.05 166.549 228.29 169.119 228.29 169.119L250.4 150.069L201.77 149.399Z" fill="#FFBE9D"/>
<path d="M271.05 348.829L294.6 359.079L282 388.449C279.26 387.079 280.16 369.449 280.16 369.449L264.8 363.499L271.05 348.829Z" fill="#E36396"/>
<g opacity="0.6">
<path opacity="0.6" d="M282.77 359.839C282.977 359.592 283.268 359.43 283.588 359.384C283.907 359.337 284.232 359.411 284.5 359.589C284.752 359.789 284.918 360.077 284.965 360.395C285.011 360.713 284.935 361.036 284.75 361.299C284.532 361.559 284.225 361.728 283.889 361.775C283.552 361.821 283.211 361.74 282.93 361.549C282.686 361.316 282.541 360.996 282.528 360.659C282.515 360.321 282.634 359.991 282.86 359.739" fill="white"/>
</g>
<path opacity="0.6" d="M294.6 359.08L292.18 358.14L281 386.65C281 386.65 281 388.21 282 388.45L294.6 359.08Z" fill="white"/>
<path d="M279.791 369.88C279.941 369.93 280.311 369.24 281.081 368.74C281.851 368.24 282.601 368.11 282.601 367.96C282.601 367.81 281.681 367.66 280.771 368.29C279.861 368.92 279.651 369.85 279.791 369.88Z" fill="#263238"/>
<path d="M279.74 373.5C279.87 373.6 280.38 373.08 281.2 372.85C282.02 372.62 282.71 372.76 282.77 372.62C282.83 372.48 282.05 372.03 281.04 372.33C280.03 372.63 279.61 373.44 279.74 373.5Z" fill="#263238"/>
<path d="M282.68 376.84C282.77 376.72 282.13 376.21 281.19 376.24C280.25 376.27 279.65 376.81 279.74 376.92C279.83 377.03 280.43 376.8 281.21 376.79C281.99 376.78 282.6 377 282.68 376.84Z" fill="#263238"/>
<path d="M276.44 368.129C276.6 368.129 276.68 367.379 277.09 366.599C277.5 365.819 278.02 365.289 277.93 365.159C277.84 365.029 277.06 365.419 276.6 366.349C276.14 367.279 276.3 368.149 276.44 368.129Z" fill="#263238"/>
<path d="M273.261 365.93C273.321 365.93 273.651 365.43 273.881 364.46C274.018 363.89 274.082 363.305 274.071 362.72C274.066 362.385 274.039 362.051 273.991 361.72C273.969 361.516 273.915 361.317 273.831 361.13C273.77 360.992 273.665 360.879 273.533 360.809C273.401 360.738 273.248 360.714 273.101 360.74C272.969 360.765 272.846 360.823 272.742 360.906C272.637 360.99 272.554 361.097 272.501 361.22C272.42 361.408 272.366 361.607 272.341 361.81C272.18 362.744 272.259 363.704 272.571 364.6C272.901 365.55 273.341 366.01 273.391 365.97C273.441 365.93 273.161 365.4 272.931 364.49C272.807 363.956 272.75 363.408 272.761 362.86C272.768 362.524 272.802 362.19 272.861 361.86C272.911 361.52 273.021 361.25 273.201 361.23C273.381 361.21 273.281 361.23 273.351 361.33C273.404 361.472 273.441 361.619 273.461 361.77C273.518 362.101 273.554 362.434 273.571 362.77C273.601 363.321 273.577 363.873 273.501 364.42C273.387 364.917 273.306 365.422 273.261 365.93Z" fill="#263238"/>
<path d="M273.54 365.84C273.54 365.84 273.2 365.29 272.29 364.84C271.756 364.579 271.181 364.413 270.59 364.35C270.258 364.313 269.922 364.313 269.59 364.35C269.362 364.347 269.136 364.403 268.935 364.511C268.734 364.62 268.564 364.777 268.44 364.97C268.389 365.102 268.375 365.246 268.402 365.386C268.429 365.526 268.494 365.655 268.59 365.76C268.732 365.907 268.894 366.035 269.07 366.14C269.38 366.333 269.717 366.478 270.07 366.57C270.655 366.714 271.266 366.714 271.85 366.57C272.85 366.32 273.29 365.8 273.25 365.77C272.768 365.937 272.278 366.078 271.78 366.19C271.251 366.265 270.712 366.225 270.2 366.07C269.903 365.976 269.62 365.841 269.36 365.67C269.07 365.49 268.87 365.27 268.95 365.17C269.036 365.069 269.144 364.989 269.265 364.936C269.386 364.882 269.518 364.856 269.65 364.86C269.983 364.827 270.318 364.827 270.65 364.86C271.193 364.897 271.729 365.012 272.24 365.2C273 365.52 273.49 365.9 273.54 365.84Z" fill="#263238"/>
<path d="M252.91 389.17L262.65 409.58L265.7 428C265.752 428.313 265.868 428.612 266.04 428.879C266.213 429.146 266.438 429.374 266.703 429.549C266.967 429.725 267.265 429.844 267.578 429.899C267.891 429.954 268.211 429.944 268.52 429.87C268.88 429.787 269.214 429.618 269.495 429.377C269.775 429.137 269.993 428.833 270.13 428.49C271.92 424.06 278.43 407.71 277.63 406.26C276.71 404.58 268.78 384.05 268.78 384.05L252.91 389.17Z" fill="#E36396"/>
<path opacity="0.6" d="M268.521 429.819L277.001 404.819L277.401 405.689C277.74 406.444 277.8 407.294 277.571 408.089C276.951 410.219 275.121 416.089 270.191 428.409C270.051 428.764 269.825 429.079 269.534 429.325C269.242 429.572 268.894 429.741 268.521 429.819Z" fill="white"/>
<g opacity="0.6">
<path opacity="0.6" d="M269.78 400.07C269.61 400.369 269.556 400.72 269.63 401.057C269.704 401.393 269.9 401.69 270.18 401.89C270.474 402.072 270.827 402.134 271.166 402.063C271.505 401.992 271.803 401.794 272 401.51C272.176 401.19 272.228 400.817 272.147 400.461C272.066 400.105 271.857 399.792 271.56 399.58C271.234 399.422 270.86 399.397 270.516 399.511C270.173 399.625 269.887 399.868 269.72 400.19" fill="white"/>
</g>
<path d="M269.18 418.69C268.424 418.203 267.549 417.929 266.65 417.897C265.751 417.865 264.859 418.077 264.07 418.51C264.07 418.51 264.22 418.19 264.67 417.91C265.272 417.547 265.968 417.37 266.67 417.4C267.368 417.421 268.045 417.643 268.62 418.04C269.06 418.36 269.22 418.65 269.18 418.69Z" fill="#263238"/>
<path d="M269 422.109C268.262 422.041 267.52 422.021 266.78 422.049C266.058 422.221 265.347 422.435 264.65 422.689C264.54 422.609 265.34 421.689 266.71 421.549C267.108 421.452 267.524 421.452 267.923 421.55C268.322 421.647 268.691 421.839 269 422.109Z" fill="#263238"/>
<path d="M270.321 413.919C269.191 413.722 268.047 413.612 266.901 413.589C265.758 413.717 264.627 413.938 263.521 414.249C264.504 413.55 265.667 413.147 266.872 413.088C268.077 413.03 269.274 413.318 270.321 413.919Z" fill="#263238"/>
<path d="M267.88 407.469C267.88 407.619 266.53 407.649 265.02 408.269C263.51 408.889 262.5 409.759 262.4 409.649C262.972 408.766 263.836 408.112 264.84 407.799C265.783 407.334 266.86 407.217 267.88 407.469Z" fill="#263238"/>
<path d="M265.17 401.4C264.141 401.517 263.132 401.773 262.17 402.16C261.279 402.681 260.464 403.324 259.75 404.07C259.7 404.07 259.8 403.68 260.16 403.2C260.631 402.565 261.248 402.053 261.96 401.71C262.665 401.358 263.443 401.179 264.23 401.19C264.83 401.21 265.18 401.35 265.17 401.4Z" fill="#263238"/>
<path d="M261.69 400.999C261.516 400.768 261.388 400.507 261.31 400.229C261.063 399.482 260.965 398.694 261.02 397.909C261.008 397.331 261.187 396.765 261.53 396.299C261.653 396.163 261.814 396.067 261.992 396.023C262.17 395.978 262.357 395.988 262.53 396.049C262.866 396.214 263.133 396.494 263.28 396.839C263.545 397.554 263.552 398.339 263.3 399.058C263.048 399.777 262.553 400.386 261.9 400.779C261.247 401.155 260.498 401.328 259.747 401.278C258.996 401.229 258.277 400.957 257.68 400.499C257.528 400.38 257.404 400.228 257.318 400.055C257.231 399.882 257.184 399.692 257.18 399.499C257.19 399.308 257.26 399.125 257.38 398.976C257.501 398.827 257.665 398.719 257.85 398.669C258.409 398.556 258.988 398.591 259.53 398.769C260.295 398.969 261.017 399.308 261.66 399.769C262.11 400.079 262.31 400.309 262.29 400.339C261.411 399.795 260.453 399.39 259.45 399.139C258.972 398.998 258.466 398.981 257.98 399.089C257.878 399.115 257.787 399.172 257.721 399.253C257.654 399.334 257.615 399.434 257.61 399.539C257.627 399.662 257.669 399.78 257.733 399.886C257.796 399.992 257.88 400.085 257.98 400.159C258.505 400.541 259.13 400.764 259.779 400.802C260.428 400.839 261.074 400.689 261.64 400.369C262.207 400.039 262.642 399.523 262.871 398.909C263.101 398.295 263.111 397.62 262.9 396.999C262.81 396.753 262.632 396.55 262.4 396.429C262.304 396.385 262.198 396.374 262.095 396.395C261.992 396.417 261.899 396.471 261.83 396.549C261.536 396.942 261.375 397.419 261.37 397.909C261.294 398.95 261.402 399.996 261.69 400.999Z" fill="#263238"/>
<path d="M285.73 351.319L259.02 333.319L267.86 246.529L242.56 231.759L219.43 226.399C219.43 226.399 209.77 246.499 205.43 259.399C196.29 286.769 189.88 296.579 191.35 316.399C191.81 322.679 214.99 338.399 229.63 347.109C229.794 348.852 230.054 350.585 230.41 352.299C235.41 374.919 250.69 404.999 250.69 404.999L273.89 394.209L266.41 368.559L274.21 373.109L285.73 351.319ZM228.32 295.319L231.44 281.409C230.78 290.259 230.18 299.489 229.75 308.339C228.242 304.186 227.751 299.731 228.32 295.349V295.319Z" fill="#263238"/>
<path d="M250.73 405C250.659 404.882 250.598 404.758 250.55 404.63L250.06 403.54L248.27 399.31C246.73 395.62 244.52 390.31 241.87 383.66C239.22 377.01 236.08 369.13 232.87 360.23C232.08 358 231.31 355.71 230.58 353.34C230.26 352.14 229.85 350.96 229.64 349.69C229.58 349.38 229.51 349.06 229.46 348.75L229.35 347.8L229.14 345.9C228.86 343.34 228.637 340.733 228.47 338.08C228.39 336.76 228.32 335.42 228.26 334.08C228.2 332.74 228.16 331.37 228.26 330C228.66 319.1 229.57 308.76 230.33 299.35C231.09 289.94 231.82 281.48 232.42 274.35C233.02 267.22 233.42 261.48 233.62 257.49C233.75 255.49 233.82 253.95 233.86 252.91L233.93 251.71C233.912 251.577 233.912 251.442 233.93 251.31C233.941 251.443 233.941 251.576 233.93 251.71C233.93 252.01 233.93 252.4 233.93 252.91C233.93 253.96 233.88 255.51 233.79 257.5C233.62 261.5 233.27 267.26 232.74 274.38C232.21 281.5 231.5 289.97 230.74 299.38C229.98 308.79 229.11 319.13 228.74 330C228.66 331.36 228.74 332.7 228.74 334.05C228.74 335.4 228.86 336.72 228.95 338.05C229.11 340.716 229.327 343.313 229.6 345.84L229.81 347.75L229.92 348.69C229.97 349 230.04 349.3 230.1 349.61C230.3 350.83 230.7 352.02 231.02 353.21C231.73 355.56 232.5 357.85 233.28 360.08C236.42 368.97 239.53 376.88 242.13 383.53C244.73 390.18 246.9 395.53 248.39 399.23C249.12 401.07 249.7 402.5 250.1 403.5C250.28 403.97 250.43 404.34 250.53 404.61C250.63 404.88 250.73 405 250.73 405Z" fill="#455A64"/>
<path d="M232.87 248.369C232.87 248.369 232.64 248.229 232.27 247.879C231.792 247.341 231.41 246.726 231.14 246.059C230.349 243.853 229.962 241.522 230 239.179C229.97 236.841 230.08 234.504 230.33 232.179C230.377 231.219 230.511 230.265 230.73 229.329C230.812 230.287 230.812 231.251 230.73 232.209C230.64 233.979 230.5 236.429 230.54 239.129C230.524 241.424 230.862 243.707 231.54 245.899C231.775 246.542 232.095 247.15 232.49 247.709C232.73 248.119 232.9 248.349 232.87 248.369Z" fill="#455A64"/>
<path d="M222.89 227.72C223.126 228.503 223.194 229.328 223.09 230.14C222.957 232.131 222.295 234.05 221.171 235.699C220.048 237.348 218.504 238.667 216.7 239.52C215.98 239.912 215.187 240.151 214.37 240.22C214.37 240.14 215.24 239.9 216.54 239.22C218.232 238.32 219.68 237.022 220.76 235.439C221.84 233.855 222.52 232.034 222.74 230.13C222.91 228.65 222.8 227.72 222.89 227.72Z" fill="#455A64"/>
<path d="M264.39 278.18C264.39 278.18 264.39 278.27 264.39 278.44C264.39 278.61 264.39 278.9 264.33 279.21C264.25 279.93 264.15 280.93 264.03 282.21C263.74 284.82 263.34 288.53 262.84 293.09C261.84 302.32 260.36 314.99 258.78 329C258.217 335.595 258.659 342.237 260.09 348.7C260.717 351.515 261.522 354.287 262.5 357C263.4 359.56 264.23 361.95 265 364.14C266.51 368.48 267.73 372.01 268.59 374.49C268.99 375.69 269.31 376.63 269.59 377.31L269.83 378.05C269.864 378.129 269.884 378.214 269.89 378.3C269.89 378.3 269.89 378.23 269.78 378.06C269.67 377.89 269.61 377.64 269.5 377.34C269.24 376.67 268.9 375.74 268.5 374.55L264.76 364.26C263.98 362.08 263.12 359.69 262.2 357.14C261.198 354.412 260.373 351.623 259.73 348.79C258.258 342.286 257.796 335.594 258.36 328.95C259.92 314.9 261.48 302.24 262.57 293.05C263.14 288.49 263.57 284.78 263.92 282.18C264.08 280.92 264.21 279.94 264.31 279.18C264.31 278.87 264.39 278.62 264.42 278.42C264.399 278.342 264.389 278.261 264.39 278.18Z" fill="#455A64"/>
<path d="M219.43 226.249L223.53 215.779L232.88 229.719L220.41 226.609" fill="#FFBE9D"/>
<path d="M317.25 194.779L306.16 169.909C304.83 165.909 302.34 165.289 300.26 162.969L272.47 147.299C252.21 138.999 241.18 166.819 241.18 166.819L222.77 208.819C201.12 215.989 216.45 232.619 216.45 232.619C216.45 232.619 210.56 222.379 216.36 218.689C222.42 214.819 229.14 225.009 235.6 234.689C243.23 246.109 268.01 253.529 268.01 253.529C270.91 250.469 270.1 239.779 272.37 234.039C273.09 232.229 290.25 192.479 290.25 192.479L296.9 208.589C296.9 208.589 305.42 198.589 309.56 197.009C312.055 196.049 314.628 195.303 317.25 194.779Z" fill="#E36396"/>
<path d="M268 212.459C267.746 212.69 267.464 212.888 267.16 213.049C266.353 213.518 265.506 213.916 264.63 214.239C261.718 215.337 258.571 215.664 255.495 215.189C252.419 214.714 249.517 213.454 247.07 211.529C246.331 210.959 245.645 210.323 245.02 209.629C244.773 209.394 244.563 209.12 244.4 208.819C244.47 208.749 245.4 209.879 247.28 211.249C249.724 213.052 252.568 214.235 255.568 214.699C258.569 215.162 261.637 214.891 264.51 213.909C266.73 213.169 268 212.379 268 212.459Z" fill="#263238"/>
<path d="M222 173L239.15 174.62L266.59 145.62L250.45 145.06L221.72 147.9C223.231 156.19 223.326 164.677 222 173Z" fill="#E36396"/>
<path d="M245.771 157.739C245.729 157.926 245.658 158.105 245.561 158.269L244.87 159.749C244.25 161.089 243.381 162.939 242.331 165.179C240.201 169.779 237.331 176.179 234.331 183.279C231.331 190.379 228.471 196.809 226.331 201.419C225.281 203.729 224.41 205.579 223.79 206.859L223.061 208.319C222.984 208.497 222.887 208.665 222.771 208.819C222.821 208.634 222.888 208.453 222.971 208.279L223.611 206.779L226.01 201.279C228.01 196.569 230.8 190.159 233.84 183.079C236.88 175.999 239.84 169.599 242.01 165.029C243.12 162.749 244.01 160.919 244.701 159.659C245.021 159.079 245.271 158.599 245.471 158.219C245.553 158.049 245.654 157.888 245.771 157.739Z" fill="#263238"/>
<path d="M298.121 166.17C298.171 166.26 297.121 166.81 295.651 168.05C294.807 168.773 294.034 169.573 293.341 170.44C292.496 171.511 291.765 172.667 291.161 173.89C290.58 175.121 290.125 176.408 289.801 177.73C289.549 178.817 289.401 179.925 289.361 181.04C289.291 182.94 289.511 184.12 289.411 184.13C289.305 183.871 289.238 183.598 289.211 183.32C289.135 182.991 289.089 182.657 289.071 182.32C289.019 181.882 288.996 181.441 289.001 181C288.993 179.857 289.11 178.717 289.351 177.6C289.651 176.221 290.103 174.879 290.701 173.6C291.327 172.347 292.088 171.167 292.971 170.08C293.702 169.206 294.523 168.411 295.421 167.71C295.759 167.432 296.117 167.178 296.491 166.95C296.76 166.757 297.044 166.587 297.341 166.44C297.585 166.309 297.848 166.218 298.121 166.17Z" fill="#263238"/>
<path d="M302.91 126.34L286.82 156.42C285.552 158.785 283.436 160.583 280.896 161.451C278.356 162.32 275.581 162.194 273.13 161.1C271.81 160.502 270.625 159.64 269.65 158.568C268.676 157.495 267.931 156.233 267.462 154.862C266.994 153.49 266.811 152.036 266.926 150.591C267.041 149.146 267.451 147.74 268.13 146.46L270.9 141.24C270.9 141.24 263.9 136.71 267.18 129.15C270.1 122.41 280.82 103.37 283.09 99.3496L296.65 105.42C298.456 106.361 300.054 107.655 301.35 109.224C302.647 110.794 303.615 112.607 304.199 114.557C304.782 116.508 304.969 118.555 304.748 120.579C304.527 122.603 303.902 124.562 302.91 126.34Z" fill="#FFBE9D"/>
<path d="M270.9 141.13C274.343 142.747 278.189 143.304 281.95 142.73C281.95 142.73 277.21 147.1 270.01 143.07L270.9 141.13Z" fill="#EB996E"/>
<path d="M276.07 117.079C275.942 117.358 275.928 117.676 276.031 117.966C276.134 118.255 276.345 118.493 276.62 118.629C276.752 118.701 276.897 118.745 277.046 118.76C277.195 118.775 277.345 118.76 277.489 118.717C277.632 118.673 277.765 118.601 277.881 118.505C277.996 118.41 278.091 118.292 278.16 118.159C278.288 117.88 278.303 117.562 278.2 117.273C278.097 116.983 277.886 116.745 277.61 116.609C277.479 116.538 277.334 116.493 277.185 116.478C277.036 116.463 276.885 116.478 276.742 116.522C276.599 116.566 276.465 116.637 276.35 116.733C276.235 116.829 276.14 116.946 276.07 117.079Z" fill="#263238"/>
<path d="M276.13 116.129C276.2 116.329 277.28 116.129 278.44 116.609C279.6 117.089 280.18 118.079 280.37 117.999C280.56 117.919 280.43 117.649 280.19 117.219C279.843 116.65 279.33 116.2 278.72 115.929C278.118 115.659 277.446 115.586 276.8 115.719C276.33 115.829 276.09 115.999 276.13 116.129Z" fill="#263238"/>
<path d="M286.88 122.399C286.749 122.678 286.734 122.997 286.837 123.287C286.94 123.577 287.153 123.815 287.43 123.949C287.563 124.02 287.708 124.064 287.857 124.079C288.007 124.093 288.158 124.077 288.301 124.033C288.444 123.988 288.577 123.915 288.692 123.818C288.807 123.722 288.902 123.603 288.97 123.469C289.095 123.191 289.108 122.876 289.005 122.589C288.903 122.302 288.693 122.065 288.42 121.929C288.289 121.857 288.144 121.811 287.995 121.795C287.845 121.779 287.694 121.794 287.551 121.838C287.407 121.882 287.273 121.954 287.158 122.05C287.043 122.147 286.949 122.266 286.88 122.399Z" fill="#263238"/>
<path d="M287.39 121.419C287.46 121.619 288.54 121.419 289.7 121.899C290.86 122.379 291.44 123.379 291.63 123.299C291.82 123.219 291.7 122.949 291.45 122.509C291.102 121.943 290.589 121.497 289.98 121.229C289.379 120.955 288.706 120.881 288.06 121.019C287.59 121.129 287.35 121.329 287.39 121.419Z" fill="#263238"/>
<path d="M279.36 128.11C278.835 127.652 278.258 127.26 277.64 126.94C277.36 126.77 277.1 126.59 277.14 126.37C277.18 126.15 277.44 125.86 277.73 125.58L279.61 123.72C281.27 122.177 282.805 120.505 284.2 118.72C282.41 120.117 280.738 121.659 279.2 123.33L277.35 125.22C277.005 125.493 276.768 125.879 276.68 126.31C276.678 126.433 276.703 126.554 276.753 126.667C276.804 126.779 276.877 126.879 276.97 126.96C277.114 127.075 277.272 127.172 277.44 127.25C278.037 127.623 278.683 127.913 279.36 128.11Z" fill="#263238"/>
<path d="M282.401 130.429C282.221 130.339 281.661 131.589 280.191 131.999C278.721 132.409 277.441 131.679 277.351 131.849C277.261 132.019 277.541 132.219 278.101 132.489C278.829 132.83 279.655 132.901 280.431 132.689C281.178 132.491 281.818 132.006 282.211 131.339C282.491 130.839 282.491 130.469 282.401 130.429Z" fill="#263238"/>
<path d="M289.12 116.76C289.12 117.13 290.31 117.49 291.59 118.26C292.87 119.03 293.81 119.89 294.11 119.69C294.25 119.59 294.19 119.21 293.89 118.69C293.464 118.056 292.9 117.526 292.24 117.139C291.58 116.753 290.842 116.521 290.08 116.46C289.5 116.46 289.13 116.59 289.12 116.76Z" fill="#263238"/>
<path d="M278.05 113C278.14 113.36 279.05 113.44 280.05 113.85C281.05 114.26 281.74 114.85 282.05 114.63C282.36 114.41 282.19 114.21 281.94 113.81C281.611 113.291 281.124 112.891 280.55 112.67C279.983 112.425 279.353 112.365 278.75 112.5C278.25 112.58 278 112.8 278.05 113Z" fill="#263238"/>
<path d="M297.85 130.85C298.01 130.85 303.7 131.63 301.24 136.7C298.78 141.77 294.24 138.25 294.24 138.1C294.24 137.95 297.85 130.85 297.85 130.85Z" fill="#FFBE9D"/>
<path d="M296.741 136.929C296.741 136.929 296.801 137.029 296.911 137.179C297.08 137.369 297.317 137.487 297.571 137.509C298.005 137.466 298.42 137.306 298.771 137.048C299.123 136.789 299.399 136.441 299.571 136.039C299.794 135.612 299.92 135.141 299.941 134.659C299.969 134.478 299.953 134.292 299.893 134.118C299.834 133.943 299.734 133.786 299.601 133.659C299.511 133.584 299.398 133.544 299.281 133.544C299.164 133.544 299.05 133.584 298.961 133.659C298.831 133.769 298.811 133.879 298.781 133.879C298.751 133.879 298.711 133.739 298.851 133.549C298.942 133.437 299.069 133.36 299.211 133.329C299.401 133.293 299.598 133.333 299.761 133.439C299.947 133.582 300.095 133.77 300.189 133.985C300.283 134.2 300.322 134.435 300.301 134.669C300.302 135.212 300.172 135.748 299.921 136.229C299.726 136.693 299.4 137.089 298.982 137.368C298.564 137.647 298.073 137.797 297.571 137.799C297.415 137.768 297.269 137.705 297.139 137.614C297.01 137.523 296.902 137.405 296.821 137.269C296.691 137.059 296.721 136.929 296.741 136.929Z" fill="#EB996E"/>
<path d="M300.79 132C300.319 131.762 299.794 131.652 299.267 131.682C298.741 131.712 298.231 131.88 297.79 132.17C297.13 132.75 296.68 133.55 296.02 134.17C295.716 134.492 295.313 134.705 294.875 134.774C294.437 134.842 293.989 134.764 293.6 134.55C293.373 134.347 293.203 134.087 293.108 133.797C293.013 133.508 292.997 133.198 293.06 132.9C293.194 132.301 293.442 131.734 293.79 131.23C295.16 128.97 296.73 126.81 297.91 124.44C299.194 122.099 299.754 119.429 299.52 116.77C299.385 115.447 298.895 114.185 298.103 113.117C297.312 112.049 296.246 111.214 295.02 110.7C293.37 110.12 291.53 110.29 289.84 109.81C288.84 109.509 287.921 108.986 287.152 108.28C286.383 107.573 285.784 106.701 285.4 105.73C285.201 105.338 284.981 104.957 284.74 104.59C284.8 104.47 285.4 103.45 285.99 103.25C290.45 101.74 296.48 103.47 300.17 106.38C302.054 107.843 303.595 109.7 304.687 111.821C305.778 113.942 306.394 116.276 306.49 118.66C306.54 123.36 303.58 128.54 300.83 132.04" fill="#263238"/>
<path d="M300.84 131.45C302.25 129.05 304.53 127.32 306.27 125.16C308.01 123 309.27 119.95 307.97 117.47C307.55 116.62 306.87 115.91 306.52 115.03C306.243 114.116 306.075 113.173 306.02 112.22C305.794 110.763 305.241 109.377 304.403 108.164C303.565 106.952 302.463 105.945 301.18 105.22C299.4 104.22 297.35 103.82 295.54 102.87C292.69 101.37 290.6 98.5895 287.54 97.3995C287.058 97.1643 286.531 97.0338 285.995 97.0166C285.459 96.9994 284.926 97.0958 284.43 97.2995C284.192 97.415 283.982 97.5791 283.812 97.7813C283.643 97.9834 283.517 98.219 283.445 98.4728C283.372 98.7265 283.354 98.9927 283.391 99.254C283.428 99.5154 283.519 99.766 283.66 99.9895C283.601 99.7592 283.492 99.5446 283.341 99.3607C283.19 99.1769 283.001 99.0283 282.786 98.9254C282.572 98.8225 282.338 98.7678 282.1 98.765C281.862 98.7623 281.626 98.8116 281.41 98.9095C280.984 99.1415 280.637 99.4939 280.411 99.9227C280.185 100.351 280.09 100.837 280.14 101.32C280.257 102.282 280.634 103.195 281.23 103.96C283.084 106.588 285.814 108.47 288.93 109.27L295.84 108.73L301.5 112.92L305.68 119.59L298.09 129.45L300.84 131.45Z" fill="#263238"/>
<path d="M257.65 92.0996C257.369 87.7425 255.923 83.5408 253.463 79.9334C251.004 76.326 247.62 73.4454 243.667 71.5925C239.713 69.7395 235.335 68.9823 230.989 69.3998C226.643 69.8174 222.488 71.3945 218.96 73.9662C215.432 76.538 212.659 80.0101 210.931 84.0198C209.203 88.0295 208.584 92.4297 209.137 96.7606C209.691 101.091 211.398 105.194 214.079 108.64C216.76 112.086 220.318 114.748 224.38 116.35C224.57 119.23 224.78 122.49 224.78 122.49L246.1 121.11C246.1 121.11 246.01 117.66 245.85 114.58C249.693 112.28 252.828 108.964 254.91 104.998C256.992 101.032 257.94 96.5693 257.65 92.0996Z" fill="#557DAC"/>
<path d="M238.38 121.509C238.38 121.509 238.38 121.399 238.38 121.209C238.38 121.019 238.38 120.699 238.38 120.319C238.38 119.549 238.49 118.399 238.61 116.929C238.73 115.459 238.9 113.649 239.23 111.579C239.595 109.221 240.188 106.903 241 104.659C241.478 103.353 242.07 102.091 242.77 100.889C243.151 100.233 243.691 99.6825 244.34 99.2892C244.691 99.0933 245.084 98.9847 245.486 98.9725C245.888 98.9603 246.287 99.0449 246.65 99.2192C247.034 99.404 247.331 99.7301 247.48 100.129C247.644 100.533 247.644 100.985 247.48 101.389C247.123 102.166 246.493 102.786 245.71 103.129C244.884 103.452 244.003 103.609 243.117 103.589C242.23 103.569 241.357 103.373 240.547 103.013C239.737 102.653 239.006 102.136 238.397 101.492C237.788 100.847 237.313 100.088 237 99.2592C236.63 98.3751 236.516 97.405 236.67 96.4592C236.754 95.9562 237.01 95.4982 237.395 95.1641C237.78 94.8301 238.27 94.6409 238.78 94.6292C239.044 94.6377 239.301 94.7139 239.527 94.8505C239.753 94.9871 239.94 95.1795 240.07 95.4092C240.339 95.8526 240.441 96.377 240.36 96.8892C240.125 97.8756 239.582 98.7616 238.81 99.4192C238.075 100.126 237.198 100.67 236.239 101.014C235.279 101.359 234.257 101.497 233.24 101.419C232.221 101.323 231.24 100.982 230.382 100.425C229.523 99.8677 228.812 99.1109 228.31 98.2192C228.052 97.7798 227.887 97.2918 227.827 96.7858C227.767 96.2798 227.812 95.7668 227.96 95.2792C228.032 95.029 228.159 94.7977 228.33 94.6017C228.502 94.4057 228.714 94.2498 228.953 94.1449C229.191 94.04 229.45 93.9887 229.71 93.9946C229.971 94.0005 230.226 94.0635 230.46 94.1792C230.92 94.3922 231.304 94.7412 231.56 95.1792C231.799 95.606 231.955 96.0743 232.02 96.5592C232.148 97.4957 232.084 98.4485 231.83 99.3592C231.36 101.144 230.226 102.682 228.66 103.659C227.165 104.576 225.392 104.93 223.66 104.659C222.818 104.58 222.024 104.229 221.4 103.659C221.094 103.361 220.899 102.968 220.846 102.545C220.794 102.122 220.887 101.693 221.11 101.329C221.369 100.994 221.75 100.775 222.17 100.719C222.57 100.668 222.976 100.72 223.35 100.869C224.04 101.206 224.599 101.762 224.94 102.449C225.64 103.729 226.21 104.979 226.79 106.169C229.05 110.949 230.69 114.899 231.79 117.639C232.34 119.009 232.79 120.079 233.03 120.799C233.16 121.159 233.26 121.439 233.34 121.629C233.377 121.724 233.407 121.821 233.43 121.919L233.31 121.639L232.97 120.829L231.68 117.679C230.54 114.959 228.87 111.019 226.59 106.259C226.01 105.079 225.42 103.809 224.73 102.559C224.409 101.922 223.89 101.406 223.25 101.089C222.927 100.937 222.563 100.892 222.213 100.96C221.862 101.028 221.542 101.207 221.3 101.469C221.118 101.786 221.047 102.155 221.098 102.517C221.149 102.879 221.318 103.214 221.58 103.469C222.163 104.001 222.904 104.327 223.69 104.399C225.361 104.648 227.066 104.293 228.5 103.399C229.986 102.447 231.058 100.968 231.5 99.2592C231.744 98.3844 231.806 97.4687 231.68 96.5692C231.651 96.1221 231.507 95.6899 231.264 95.3136C231.021 94.9373 230.686 94.6294 230.29 94.4192C230.091 94.3276 229.874 94.2802 229.655 94.2802C229.436 94.2802 229.219 94.3276 229.02 94.4192C228.817 94.5158 228.638 94.6553 228.495 94.828C228.352 95.0006 228.248 95.2023 228.19 95.4192C228.055 95.8676 228.015 96.339 228.072 96.8037C228.129 97.2684 228.281 97.7163 228.52 98.1192C229.007 98.9584 229.687 99.6688 230.505 100.191C231.323 100.713 232.254 101.031 233.22 101.119C234.194 101.191 235.173 101.057 236.091 100.724C237.01 100.391 237.848 99.8684 238.55 99.1892C239.265 98.5793 239.772 97.7612 240 96.8492C240.07 96.4031 239.982 95.9467 239.75 95.5592C239.643 95.3729 239.49 95.2167 239.307 95.1048C239.123 94.993 238.915 94.9291 238.7 94.9192C238.258 94.922 237.834 95.0896 237.51 95.3892C237.184 95.6871 236.966 96.0844 236.89 96.5192C236.742 97.4108 236.85 98.326 237.2 99.1592C237.499 99.9613 237.955 100.696 238.541 101.319C239.128 101.943 239.833 102.443 240.616 102.79C241.398 103.138 242.242 103.326 243.098 103.343C243.954 103.359 244.804 103.205 245.6 102.889C246.323 102.573 246.906 102.004 247.24 101.289C247.383 100.952 247.392 100.573 247.266 100.23C247.14 99.8859 246.887 99.6033 246.56 99.4392C246.232 99.2809 245.871 99.2038 245.508 99.2142C245.144 99.2246 244.788 99.3224 244.47 99.4992C243.864 99.8713 243.36 100.386 243 100.999C242.306 102.186 241.717 103.43 241.24 104.719C240.418 106.942 239.816 109.239 239.44 111.579C239.09 113.649 238.9 115.449 238.76 116.919C238.62 118.389 238.55 119.519 238.48 120.309C238.48 120.679 238.42 120.979 238.41 121.189C238.4 121.399 238.38 121.509 238.38 121.509Z" fill="#263238"/>
<path d="M244.71 125.159L226.41 126.349C226.044 126.371 225.685 126.248 225.41 126.006C225.134 125.765 224.966 125.424 224.94 125.059C224.918 124.695 225.042 124.336 225.283 124.063C225.525 123.789 225.866 123.622 226.23 123.599L244.54 122.419C244.72 122.407 244.901 122.43 245.072 122.488C245.242 122.546 245.4 122.637 245.536 122.756C245.672 122.875 245.782 123.019 245.862 123.181C245.942 123.343 245.989 123.519 246 123.699C246.022 124.064 245.898 124.422 245.657 124.696C245.415 124.969 245.074 125.136 244.71 125.159Z" fill="#263238"/>
<path d="M244.79 126.359L226.48 127.549C226.117 127.573 225.778 127.741 225.538 128.014C225.298 128.288 225.176 128.646 225.2 129.009C225.224 129.373 225.391 129.712 225.665 129.952C225.939 130.192 226.297 130.313 226.66 130.289L228.66 130.159L231.66 135.069C231.831 135.343 232.073 135.566 232.359 135.714C232.646 135.862 232.968 135.929 233.29 135.909L239.83 135.489C240.154 135.464 240.465 135.353 240.73 135.166C240.996 134.98 241.207 134.725 241.34 134.429L243.6 129.199L244.97 129.109C245.321 129.067 245.642 128.892 245.867 128.621C246.092 128.349 246.205 128.001 246.182 127.649C246.159 127.297 246.002 126.967 245.743 126.727C245.484 126.487 245.143 126.356 244.79 126.359Z" fill="#263238"/>
<g opacity="0.2">
<path opacity="0.2" d="M216.689 79.18C218.038 77.7454 219.616 76.5456 221.359 75.63C222.5 75.0061 223.727 74.5546 224.999 74.29C225.919 74.14 226.449 74.19 226.509 74.38C226.639 74.82 224.839 75.59 222.509 77.38C219.397 79.6449 217.002 82.7575 215.61 86.3463C214.218 89.9352 213.888 93.8487 214.659 97.62C215.189 100.57 215.999 102.35 215.659 102.62C215.479 102.73 215.059 102.41 214.489 101.68C213.706 100.625 213.092 99.4542 212.669 98.21C212.022 96.358 211.684 94.4119 211.669 92.45C211.623 90.0085 212.047 87.5809 212.919 85.3" fill="white"/>
</g>
<g opacity="0.2">
<path opacity="0.2" d="M232.45 75.0599C230.91 75.1399 229.52 74.8099 229.31 73.9999C229.22 73.5999 229.48 73.1499 230.01 72.7799C230.696 72.3629 231.473 72.1194 232.275 72.0707C233.076 72.0219 233.878 72.1692 234.61 72.4999C235.19 72.8099 235.49 73.2299 235.45 73.6399" fill="white"/>
</g>
<path d="M241 134.88C240.564 134.803 240.133 134.7 239.71 134.57C238.682 134.352 237.627 134.288 236.58 134.38C235.548 134.491 234.538 134.75 233.58 135.15C232.84 135.47 232.4 135.73 232.38 135.69C232.703 135.382 233.079 135.134 233.49 134.96C234.463 134.486 235.513 134.191 236.59 134.09C237.668 133.986 238.756 134.081 239.8 134.37C240.226 134.471 240.632 134.643 241 134.88Z" fill="#455A64"/>
<path d="M243.65 129.26C243.65 129.34 240.35 129.62 236.26 129.89C232.17 130.16 228.87 130.3 228.86 130.21C228.85 130.12 232.16 129.85 236.24 129.59C240.32 129.33 243.64 129.18 243.65 129.26Z" fill="#455A64"/>
<path d="M242.64 131.51C242.052 131.655 241.453 131.752 240.85 131.8C239.74 131.95 238.2 132.11 236.49 132.25C234.78 132.39 233.24 132.46 232.12 132.49C231.517 132.544 230.912 132.544 230.31 132.49C230.902 132.369 231.505 132.302 232.11 132.29L236.47 131.96L240.83 131.6C241.429 131.518 242.035 131.488 242.64 131.51Z" fill="#455A64"/>
<path d="M110.8 254L114.8 260.37C114.8 260.37 131.8 244.76 148.59 249.17C148.56 249.15 133.44 236.33 110.8 254Z" fill="#E36396"/>
<path d="M148.56 249.15C148.56 249.15 161.01 235.63 179.27 238.71L184.27 239.46L182.69 236.59C182.69 236.59 150.9 225.71 148.56 249.15Z" fill="#E36396"/>
<path d="M122.28 203.56C122.28 203.56 97.34 199.27 81 208.12L107 257C107 257 128.26 236.51 148.6 249.13L122.28 203.56Z" fill="#F5F5F5"/>
<path d="M122.28 203.56C122.331 203.623 122.378 203.69 122.42 203.76L122.79 204.38L124.23 206.81L129.63 216.07L148.75 249.07C148.774 249.112 148.783 249.16 148.777 249.208C148.77 249.256 148.748 249.3 148.714 249.334C148.68 249.368 148.636 249.39 148.588 249.397C148.54 249.403 148.492 249.394 148.45 249.37C145.518 247.557 142.272 246.312 138.88 245.7C137.098 245.411 135.294 245.284 133.49 245.32C131.634 245.402 129.788 245.636 127.97 246.02C120.286 247.908 113.197 251.69 107.35 257.02L107.13 257.22C107.107 257.244 107.08 257.263 107.05 257.276C107.02 257.289 106.988 257.296 106.955 257.296C106.922 257.296 106.89 257.289 106.86 257.276C106.829 257.263 106.802 257.244 106.78 257.22V257.17L80.8099 208.22C80.7961 208.197 80.7872 208.172 80.7838 208.146C80.7804 208.119 80.7825 208.093 80.7901 208.067C80.7976 208.042 80.8104 208.018 80.8276 207.998C80.8448 207.978 80.866 207.961 80.8899 207.95C86.1015 205.35 91.7251 203.675 97.5099 203C101.924 202.457 106.375 202.263 110.82 202.42C114.5 202.55 117.37 202.84 119.31 203.08C120.31 203.2 121.03 203.31 121.53 203.4L122.1 203.5H122.28H122.09L121.52 203.43C121.02 203.37 120.28 203.27 119.3 203.17C117.3 202.97 114.48 202.72 110.81 202.63C106.383 202.507 101.952 202.731 97.5599 203.3C91.8229 204.005 86.2509 205.697 81.0899 208.3L81.1699 208.03L107.17 256.91L106.78 256.84L107 256.64C110.032 253.931 113.367 251.582 116.94 249.64C120.367 247.752 124.043 246.358 127.86 245.5C129.706 245.105 131.583 244.871 133.47 244.8C135.305 244.758 137.14 244.888 138.95 245.19C142.395 245.824 145.692 247.096 148.67 248.94L148.36 249.24L129.45 216.24L124.13 206.9L122.74 204.42C122.59 204.14 122.47 203.93 122.39 203.77C122.348 203.703 122.312 203.632 122.28 203.56Z" fill="#263238"/>
<path d="M161.48 193.53C161.48 193.53 142.62 181.53 122.6 203.53L148.88 249.12C148.88 249.12 154.24 230.62 185.62 237.05L161.48 193.53Z" fill="#F5F5F5"/>
<path d="M161.48 193.53C161.532 193.587 161.575 193.651 161.61 193.72C161.69 193.87 161.81 194.06 161.95 194.31L163.28 196.63L168.28 205.47L185.81 237C185.824 237.024 185.834 237.051 185.837 237.079C185.841 237.106 185.839 237.135 185.831 237.162C185.824 237.189 185.811 237.214 185.794 237.236C185.776 237.258 185.755 237.276 185.73 237.29C185.682 237.308 185.629 237.308 185.58 237.29L180.91 236.52C180.113 236.384 179.308 236.294 178.5 236.25L176.04 236.05C175.206 235.98 174.367 235.96 173.53 235.99L171 236C170.14 236 169.29 236.17 168.43 236.25C167.562 236.321 166.7 236.451 165.85 236.64L163.28 237.22L160.75 238.11C159.919 238.445 159.104 238.823 158.31 239.24C157.898 239.428 157.503 239.652 157.13 239.91L155.98 240.65C155.22 241.16 154.54 241.78 153.83 242.35C153.16 242.978 152.529 243.646 151.94 244.35C150.73 245.771 149.782 247.397 149.14 249.15C149.118 249.212 149.071 249.263 149.011 249.291C148.951 249.319 148.883 249.322 148.82 249.3C148.765 249.28 148.719 249.241 148.69 249.19L147.63 247.36C138.34 231.21 129.63 216.16 122.44 203.59C122.416 203.553 122.403 203.509 122.403 203.465C122.403 203.421 122.416 203.377 122.44 203.34C126.409 198.846 131.251 195.205 136.67 192.64C140.875 190.72 145.485 189.855 150.1 190.12C153.048 190.296 155.948 190.944 158.69 192.04C159.408 192.335 160.109 192.668 160.79 193.04L161.31 193.34L161.47 193.46L161.29 193.37L160.76 193.1C160.29 192.87 159.59 192.53 158.65 192.17C155.142 190.835 151.402 190.216 147.65 190.352C143.899 190.488 140.213 191.375 136.81 192.96C131.452 195.532 126.67 199.162 122.75 203.63V203.39L148 247.19L149.1 249L148.64 249.06C149.301 247.236 150.28 245.543 151.53 244.06C152.14 243.337 152.788 242.646 153.47 241.99C154.21 241.4 154.9 240.76 155.68 240.25L156.85 239.49C157.233 239.229 157.638 239.001 158.06 238.81C158.9 238.42 159.69 237.95 160.55 237.65L163.12 236.76L165.74 236.17C166.603 235.976 167.479 235.845 168.36 235.78C169.23 235.7 170.09 235.54 170.95 235.53H173.52C174.364 235.49 175.209 235.51 176.05 235.59L178.53 235.8C179.345 235.839 180.157 235.929 180.96 236.07L185.66 236.86L185.43 237.18C178.26 224.18 172.27 213.29 168.05 205.62C165.96 201.81 164.31 198.79 163.18 196.71L161.9 194.35C161.77 194.09 161.66 193.89 161.58 193.74C161.5 193.59 161.48 193.53 161.48 193.53Z" fill="#263238"/>
<path d="M88 184.62L116.13 238.77C116.13 238.77 138.98 237.77 148.66 248.91L122.6 203.56C122.6 203.56 107.32 184.62 88 184.62Z" fill="#F5F5F5"/>
<path d="M88.0002 184.62H88.7202L90.8802 184.71C91.1202 184.71 91.3802 184.71 91.6402 184.71L92.4702 184.85L94.3502 185.16C95.0786 185.281 95.7972 185.455 96.5002 185.68C97.3152 185.875 98.1196 186.112 98.9102 186.39C105.63 188.63 114.65 194.05 122.75 203.39L148.85 248.71C148.883 248.767 148.892 248.835 148.875 248.899C148.858 248.962 148.817 249.017 148.76 249.05C148.718 249.084 148.665 249.103 148.61 249.103C148.556 249.103 148.503 249.084 148.46 249.05L147.36 247.95C145.269 245.942 142.829 244.333 140.16 243.2C137.575 242.044 134.878 241.16 132.11 240.56C126.859 239.395 121.488 238.865 116.11 238.98C116.068 238.98 116.026 238.97 115.989 238.948C115.952 238.927 115.921 238.897 115.9 238.86C107.7 222.96 100.7 209.37 95.7302 199.75C93.3102 195 91.3702 191.2 90.0002 188.58C89.3502 187.31 88.8402 186.32 88.4902 185.58L88.1102 184.83L87.9902 184.58C88.05 184.664 88.1003 184.755 88.1402 184.85L88.5602 185.62L90.1402 188.62L96.0002 199.84L116.3 238.66L116.09 238.54C121.503 238.409 126.913 238.933 132.2 240.1C134.997 240.708 137.724 241.599 140.34 242.76C143.061 243.921 145.549 245.568 147.68 247.62L148.82 248.74L148.41 249.03C138.74 232.18 129.79 216.56 122.41 203.67C118.795 199.45 114.659 195.707 110.1 192.53C106.621 190.072 102.827 188.095 98.8202 186.65C98.0331 186.366 97.2321 186.123 96.4202 185.92C95.7246 185.688 95.0126 185.507 94.2902 185.38L92.4202 185.04L91.6102 184.89L90.8702 184.83L88.0002 184.62Z" fill="#263238"/>
<path d="M175.8 338.2L176.4 339.2C177.078 340.326 178.063 341.235 179.24 341.82L180.24 342.34L179.24 342.94C178.118 343.622 177.21 344.606 176.62 345.78L176.1 346.83L175.5 345.83C174.823 344.704 173.837 343.795 172.66 343.21L171.61 342.69L172.61 342.09C173.739 341.415 174.649 340.429 175.23 339.25L175.8 338.2Z" fill="#E36396"/>
<path d="M120.36 131.93L120.96 132.93C121.639 134.053 122.624 134.958 123.8 135.54L124.8 136.06L123.8 136.67C122.67 137.342 121.76 138.329 121.18 139.51L120.66 140.51L120.06 139.51C119.381 138.381 118.392 137.471 117.21 136.89L116.16 136.37L117.16 135.77C118.284 135.085 119.192 134.097 119.78 132.92L120.36 131.93Z" fill="#E36396"/>
<path d="M376.94 167.52L377.54 168.52C378.219 169.648 379.208 170.558 380.39 171.14L381.44 171.66L380.44 172.26C379.316 172.942 378.411 173.93 377.83 175.11L377.31 176.11L376.7 175.11C376.024 173.984 375.038 173.078 373.86 172.5L372.8 172L373.8 171.39C374.93 170.717 375.84 169.73 376.42 168.55L376.94 167.52Z" fill="#E36396"/>
<path d="M346.64 351.15L347.24 352.15C347.922 353.274 348.911 354.18 350.09 354.76L351.14 355.28L350.14 355.89C349.014 356.569 348.105 357.554 347.52 358.73L347.01 359.78L346.4 358.78C345.725 357.652 344.739 356.742 343.56 356.16L342.51 355.64L343.51 355.04C344.639 354.362 345.548 353.372 346.13 352.19L346.64 351.15Z" fill="#E36396"/>
<path d="M352.41 389.74L352.7 389.86C353.018 389.984 353.364 390.019 353.7 389.96L354.01 389.9L353.89 390.19C353.766 390.508 353.731 390.854 353.79 391.19L353.85 391.5L353.56 391.38C353.242 391.257 352.896 391.222 352.56 391.28L352.25 391.34L352.37 391.05C352.494 390.732 352.529 390.386 352.47 390.05L352.41 389.74Z" fill="#E36396"/>
<path d="M369.86 128.81L370.14 128.93C370.459 129.052 370.804 129.087 371.14 129.03L371.44 128.97L371.33 129.26C371.201 129.576 371.167 129.924 371.23 130.26L371.29 130.57L371 130.45C370.682 130.327 370.336 130.293 370 130.35L369.7 130.41L369.81 130.12C369.939 129.803 369.974 129.456 369.91 129.12L369.86 128.81Z" fill="#E36396"/>
<path d="M131.63 105L131.92 105.11C132.237 105.239 132.584 105.273 132.92 105.21H133.23L133.11 105.49C132.987 105.808 132.953 106.154 133.01 106.49L133.07 106.79L132.78 106.68C132.463 106.551 132.116 106.517 131.78 106.58H131.47L131.59 106.3C131.712 105.982 131.747 105.636 131.69 105.3L131.63 105Z" fill="#E36396"/>
<path d="M161 308.16L161.29 308.27C161.605 308.403 161.954 308.438 162.29 308.37L162.6 308.32L162.48 308.61C162.356 308.928 162.321 309.274 162.38 309.61L162.44 309.91L162.15 309.8C161.833 309.671 161.486 309.637 161.15 309.7L160.84 309.76L160.96 309.47C161.082 309.152 161.117 308.806 161.06 308.47L161 308.16Z" fill="#E36396"/>
<path d="M192.911 386.69L192.631 386.98L191.801 387.81L188.571 391L176.571 402.57V402.45C177.201 415 178.001 432 178.841 451V451.42L178.481 451.19L174.151 448.29L146.711 429.92H146.651V429.86C142.551 417.63 139.101 407.31 136.651 400.03C135.451 396.41 134.511 393.55 133.851 391.57L133.131 389.32C133.051 389.08 132.991 388.89 132.951 388.75C132.951 388.61 132.891 388.55 132.901 388.55L132.981 388.73L133.191 389.3C133.371 389.83 133.631 390.57 133.971 391.53L136.871 399.96C139.351 407.23 142.871 417.52 147.011 429.73L146.931 429.63L174.401 447.97L178.731 450.86L178.391 451.05C177.581 432.05 176.851 415.05 176.311 402.48V402.41H176.361L188.441 390.95L191.731 387.86L192.591 387.07C192.801 386.77 192.911 386.69 192.911 386.69Z" fill="#E36396"/>
<path d="M180.13 445.25L180.04 448.08L182.33 449.76L179.61 450.55L178.72 453.24L177.12 450.9L174.29 450.89L176.03 448.65L175.16 445.95L177.83 446.91L180.13 445.25Z" fill="#E36396"/>
<path d="M147.071 426.04L147.131 427.87L148.671 428.87L146.941 429.48L146.471 431.26L145.351 429.81L143.521 429.91L144.551 428.39L143.891 426.68L145.65 427.2L147.071 426.04Z" fill="#E36396"/>
<path d="M132.83 385.11L134.21 386.89L136.46 386.75L135.2 388.62L136.02 390.71L133.86 390.09L132.12 391.52L132.04 389.27L130.15 388.06L132.26 387.29L132.83 385.11Z" fill="#E36396"/>
<path d="M191.52 383.34L192.91 385.11L195.15 384.98L193.89 386.84L194.71 388.94L192.55 388.31L190.81 389.74L190.74 387.49L188.84 386.28L190.96 385.51L191.52 383.34Z" fill="#E36396"/>
<path d="M176.12 400.48L177 401.62L178.43 401.53L177.63 402.72L178.15 404.06L176.77 403.66L175.66 404.57L175.61 403.14L174.4 402.36L175.75 401.87L176.12 400.48Z" fill="#E36396"/>
<path d="M123.19 324.85C134.203 324.85 143.13 315.922 143.13 304.91C143.13 293.897 134.203 284.97 123.19 284.97C112.177 284.97 103.25 293.897 103.25 304.91C103.25 315.922 112.177 324.85 123.19 324.85Z" fill="#557DAC"/>
<g opacity="0.3">
<path opacity="0.3" d="M120.6 311.13C120.602 311.776 120.412 312.407 120.055 312.945C119.697 313.482 119.188 313.902 118.592 314.15C117.996 314.398 117.34 314.463 116.707 314.338C116.073 314.212 115.491 313.902 115.035 313.445C114.578 312.989 114.268 312.407 114.142 311.773C114.017 311.14 114.082 310.484 114.33 309.888C114.578 309.292 114.998 308.783 115.535 308.425C116.073 308.068 116.704 307.878 117.35 307.88C118.211 307.883 119.036 308.226 119.645 308.835C120.254 309.444 120.597 310.269 120.6 311.13Z" fill="white"/>
</g>
<g opacity="0.3">
<path opacity="0.3" d="M115.999 301.749C116.001 302.126 115.891 302.494 115.684 302.808C115.476 303.121 115.18 303.367 114.833 303.512C114.486 303.657 114.104 303.696 113.735 303.624C113.365 303.552 113.026 303.372 112.759 303.106C112.493 302.841 112.311 302.503 112.236 302.134C112.162 301.765 112.199 301.382 112.343 301.035C112.486 300.687 112.73 300.39 113.043 300.18C113.355 299.971 113.723 299.859 114.099 299.859C114.601 299.859 115.083 300.058 115.439 300.412C115.795 300.767 115.997 301.247 115.999 301.749Z" fill="white"/>
</g>
<path d="M103.84 309.76C103.93 310.11 86.7696 326.57 91.1996 330.08C95.6296 333.59 114.2 324.59 130.09 311.78C145.98 298.97 160.44 283.41 156.47 279.29C152.5 275.17 132.68 287.36 132.68 287.36L135.05 288.88C135.05 288.88 147.05 281.19 150.83 284.17C154.61 287.15 143.83 298.81 128.56 309.95C113.29 321.09 98.5596 328.89 96.2896 325.84C94.0196 322.79 104.79 312.62 104.79 312.62L103.84 309.76Z" fill="#557DAC"/>
<g opacity="0.3">
<path opacity="0.3" d="M103.84 309.76C103.93 310.11 86.7696 326.57 91.1996 330.08C95.6296 333.59 114.2 324.59 130.09 311.78C145.98 298.97 160.44 283.41 156.47 279.29C152.5 275.17 132.68 287.36 132.68 287.36L135.05 288.88C135.05 288.88 147.05 281.19 150.83 284.17C154.61 287.15 143.83 298.81 128.56 309.95C113.29 321.09 98.5596 328.89 96.2896 325.84C94.0196 322.79 104.79 312.62 104.79 312.62L103.84 309.76Z" fill="black"/>
</g>
<g opacity="0.3">
<path opacity="0.3" d="M112.2 290.859C112.36 291.049 111.01 292.199 109.48 294.499C107.45 297.455 106.331 300.94 106.26 304.524C106.188 308.109 107.169 311.636 109.08 314.669C110.52 317.039 111.82 318.239 111.65 318.419C111.48 318.599 109.95 317.639 108.17 315.279C107.142 313.898 106.326 312.372 105.75 310.749C104.291 306.711 104.38 302.276 106 298.299C106.638 296.697 107.515 295.2 108.6 293.859C110.47 291.579 112.11 290.719 112.2 290.859Z" fill="white"/>
</g>
<path d="M354.362 129.941C360.913 123.646 361.12 113.232 354.825 106.682C348.53 100.131 338.117 99.924 331.566 106.219C325.015 112.514 324.808 122.928 331.103 129.478C337.398 136.029 347.812 136.236 354.362 129.941Z" fill="#E36396"/>
<g opacity="0.4">
<path opacity="0.4" d="M348.33 111.8C348.342 111.27 348.511 110.756 348.815 110.322C349.12 109.888 349.546 109.554 350.04 109.362C350.534 109.17 351.074 109.13 351.591 109.245C352.108 109.36 352.58 109.625 352.946 110.009C353.313 110.392 353.557 110.875 353.649 111.397C353.741 111.919 353.676 112.456 353.462 112.941C353.248 113.426 352.896 113.837 352.448 114.121C352.001 114.406 351.48 114.552 350.95 114.54C350.598 114.534 350.25 114.457 349.927 114.316C349.605 114.174 349.313 113.97 349.069 113.716C348.826 113.461 348.635 113.161 348.508 112.832C348.381 112.503 348.321 112.152 348.33 111.8Z" fill="black"/>
</g>
<g opacity="0.4">
<path opacity="0.4" d="M353.69 118.06C353.696 117.749 353.794 117.447 353.972 117.192C354.15 116.937 354.4 116.741 354.689 116.628C354.979 116.515 355.296 116.49 355.599 116.558C355.903 116.625 356.18 116.781 356.394 117.005C356.609 117.23 356.753 117.514 356.806 117.82C356.86 118.126 356.821 118.441 356.695 118.726C356.57 119.01 356.362 119.251 356.1 119.417C355.837 119.583 355.531 119.668 355.22 119.66C355.014 119.656 354.811 119.612 354.623 119.529C354.434 119.446 354.264 119.327 354.122 119.178C353.98 119.03 353.868 118.854 353.794 118.662C353.72 118.47 353.685 118.266 353.69 118.06Z" fill="black"/>
</g>
<g opacity="0.4">
<path opacity="0.4" d="M351.6 122.86C351.675 122.86 351.75 122.875 351.819 122.904C351.888 122.934 351.951 122.977 352.003 123.031C352.055 123.085 352.096 123.149 352.123 123.219C352.15 123.29 352.163 123.365 352.16 123.44C352.155 123.593 352.09 123.738 351.98 123.844C351.87 123.95 351.723 124.01 351.57 124.01C351.418 124.005 351.274 123.94 351.169 123.829C351.064 123.719 351.007 123.572 351.01 123.42C351.011 123.344 351.027 123.269 351.058 123.2C351.088 123.131 351.132 123.068 351.187 123.016C351.242 122.964 351.307 122.923 351.378 122.896C351.449 122.87 351.524 122.857 351.6 122.86Z" fill="black"/>
</g>
</svg>
