<svg width="75" height="44" viewBox="0 0 75 44" fill="none" xmlns="http://www.w3.org/2000/svg">
<path d="M34.8406 2.30476C34.1104 3.98095 29.7294 6.18095 19.1941 10.4762C6.25959 15.819 4.59063 16.7619 4.2777 19.1714C4.06908 20.7429 3.13028 22 1.66994 22.5238C-0.520573 23.1524 -0.520573 23.1524 1.46132 23.9905C2.60873 24.4095 3.75614 25.8762 4.06908 27.2381C4.48632 29.2286 6.67683 30.5905 13.7699 33.5238C18.7768 35.619 23.0535 37.6095 23.3665 37.9238C23.6794 38.2381 23.4708 39.7048 22.9492 41.2762L21.8018 44H30.5639C39.2216 44 39.3259 44 40.0561 41.0667C40.6819 38.8667 40.9949 38.6571 41.5164 39.9143C42.038 41.4857 44.1242 40.8571 56.4328 35.7238C69.1586 30.5905 70.8276 29.5429 70.8276 27.4476C70.8276 25.8762 71.5578 24.7238 72.9138 24.4095C74.0612 24.0952 75 23.4667 75 23.0476C75 22.6286 74.0612 22 72.9138 21.6857C71.5578 21.3714 70.8276 20.219 70.8276 18.6476C70.8276 16.5524 69.5759 15.7143 62.1698 12.781C50.1742 8.06667 50.3828 8.17143 51.7388 3.77143L52.8862 0H44.3328C36.6138 0 35.7794 0.209522 34.8406 2.30476ZM43.0811 13.3048C41.725 17.8095 39.3259 25.3524 37.8656 30.0667C35.3621 38.2381 35.0492 38.7619 32.2328 38.7619H29.3121L31.8156 30.5905C33.2759 26.1905 35.5707 18.6476 37.0311 13.8286C39.5345 5.65714 39.8475 5.23809 42.6638 5.23809H45.5845L43.0811 13.3048ZM29.1035 16.1333C29.1035 19.381 28.6863 19.9048 25.244 20.9524C19.2984 22.8381 19.0897 23.6762 24.3053 25.1429C28.7906 26.4 29.1035 26.7143 29.1035 29.9619C29.1035 31.9524 28.7906 33.5238 28.3733 33.5238C27.9561 33.5238 23.4708 31.8476 18.4639 29.7524C10.0148 26.1905 9.28458 25.6667 9.28458 23.0476C9.28458 20.3238 10.0148 19.8 18.4639 16.4476C23.4708 14.3524 27.8518 12.6762 28.3733 12.5714C28.7906 12.5714 29.1035 14.1429 29.1035 16.1333ZM56.3285 16.1333C64.7776 19.5905 65.0905 19.8 65.0905 23.1524C65.0905 26.4 64.7776 26.6095 56.7457 29.9619C52.1561 31.9524 48.088 33.5238 47.6707 33.5238C47.1492 33.5238 46.8362 31.9524 46.8362 30.0667C46.8362 26.9238 47.2535 26.4 51.0087 25.1429C53.3035 24.4095 55.1811 23.4667 55.1811 23.0476C55.1811 22.6286 53.3035 21.7905 51.0087 21.0571C47.1492 19.9048 46.8362 19.4857 46.8362 16.2381C46.8362 14.2476 46.9406 12.5714 47.1492 12.5714C47.3578 12.5714 51.4259 14.1429 56.3285 16.1333Z" fill="#557DAC"/>
</svg>
